<?xml version="1.0" standalone="no"?>
<!DOCTYPE svg PUBLIC "-//W3C//DTD SVG 20010904//EN"
 "http://www.w3.org/TR/2001/REC-SVG-20010904/DTD/svg10.dtd">
<svg version="1.0" xmlns="http://www.w3.org/2000/svg"
 width="600.000000pt" height="400.000000pt" viewBox="0 0 600.000000 400.000000"
 preserveAspectRatio="xMidYMid meet">

<g transform="translate(0.000000,400.000000) scale(0.100000,-0.100000)"
fill="#000000" stroke="none">
<path d="M3101 3866 c2 -2 15 -9 29 -15 24 -11 24 -11 6 3 -16 13 -49 24 -35
12z"/>
<path d="M3115 3817 c37 -25 160 -90 150 -79 -12 13 -151 92 -162 92 -4 0 1
-6 12 -13z"/>
<path d="M3220 3801 c14 -11 30 -21 35 -21 11 0 -7 14 -40 31 -13 7 -12 3 5
-10z"/>
<path d="M3091 3786 c2 -2 22 -14 44 -26 22 -12 59 -33 83 -47 23 -14 42 -22
42 -19 0 7 -151 96 -164 96 -5 0 -7 -2 -5 -4z"/>
<path d="M3095 3742 c12 -13 151 -92 162 -92 11 0 -23 22 -102 65 -38 21 -65
33 -60 27z"/>
<path d="M3331 3737 c2 -1 13 -9 24 -17 19 -14 19 -14 6 3 -7 9 -18 17 -24 17
-6 0 -8 -1 -6 -3z"/>
<path d="M3115 3682 c79 -47 146 -82 141 -73 -7 11 -149 91 -162 91 -5 0 5 -8
21 -18z"/>
<path d="M3330 3697 c0 -6 156 -97 167 -97 11 0 -22 22 -99 64 -38 21 -68 35
-68 33z"/>
<path d="M3420 3687 c0 -7 72 -48 76 -44 2 2 -14 14 -36 26 -22 12 -40 20 -40
18z"/>
<path d="M3032 3663 c-26 -18 -54 1 267 -184 153 -88 153 -88 183 -73 l31 16
-99 55 c-117 66 -110 61 -98 73 5 5 40 -9 88 -36 43 -24 80 -43 82 -41 2 2
-37 26 -87 55 -66 37 -97 50 -114 46 -17 -4 -51 10 -123 50 -55 31 -102 56
-103 55 -2 0 -14 -7 -27 -16z"/>
<path d="M3383 3615 c74 -45 117 -67 117 -61 0 8 -153 96 -165 96 -5 0 16 -16
48 -35z"/>
<path d="M3335 3602 c12 -13 151 -92 162 -92 11 0 -23 22 -102 65 -38 21 -65
33 -60 27z"/>
<path d="M3576 3566 c4 -17 2 -26 -6 -26 -9 0 -10 -3 -1 -14 6 -7 9 -20 5 -29
-11 -28 15 -28 67 2 l52 29 -54 29 c-30 15 -58 29 -62 31 -4 2 -5 -8 -1 -22z"/>
<path d="M2469 3427 c-117 -62 -46 -159 116 -160 119 -1 192 49 165 112 -27
67 -192 95 -281 48z"/>
<path d="M2977 3389 c7 -7 15 -10 18 -7 3 3 -2 9 -12 12 -14 6 -15 5 -6 -5z"/>
<path d="M2017 3226 c-100 -37 -111 -107 -24 -153 50 -27 180 -24 234 4 72 39
68 99 -10 140 -42 21 -154 26 -200 9z"/>
<path d="M2593 3172 c-10 -10 -45 -48 -79 -84 l-61 -65 -57 23 c-50 20 -56 21
-56 6 1 -35 19 -95 31 -103 10 -6 9 -12 -4 -27 -17 -19 -12 -22 175 -130 106
-60 259 -149 340 -196 l147 -85 112 119 c127 136 145 158 133 170 -5 4 -108
65 -229 135 -121 70 -247 144 -280 164 -150 94 -152 94 -172 73z"/>
<path d="M4360 3180 c0 -5 5 -10 10 -10 6 0 10 5 10 10 0 6 -4 10 -10 10 -5 0
-10 -4 -10 -10z"/>
<path d="M4319 3121 c7 -5 9 -11 5 -13 -5 -3 -3 -3 4 -1 7 1 22 -2 33 -7 10
-6 19 -8 19 -6 0 7 -56 36 -67 36 -4 0 -2 -4 6 -9z"/>
<path d="M3283 3075 c0 -22 2 -30 4 -17 2 12 2 30 0 40 -3 9 -5 -1 -4 -23z"/>
<path d="M4202 3079 c2 -19 8 -33 13 -31 15 4 12 55 -3 60 -10 3 -13 -5 -10
-29z"/>
<path d="M4514 3036 c11 -9 24 -16 30 -16 12 0 7 5 -24 19 -24 11 -24 11 -6
-3z"/>
<path d="M3283 2985 c0 -22 2 -30 4 -17 2 12 2 30 0 40 -3 9 -5 -1 -4 -23z"/>
<path d="M4220 2990 c0 -11 4 -20 8 -20 4 0 8 9 9 20 1 11 -2 20 -8 20 -5 0
-9 -9 -9 -20z"/>
<path d="M742 2985 c-7 -8 -9 -15 -4 -15 5 0 15 7 22 15 16 19 -1 19 -18 0z"/>
<path d="M4566 2984 c-11 -28 -6 -54 9 -54 10 0 14 10 13 35 -1 37 -12 46 -22
19z"/>
<path d="M4410 2987 c0 -3 12 -12 26 -22 15 -9 23 -12 20 -6 -7 11 -46 35 -46
28z"/>
<path d="M827 2969 c7 -7 15 -10 18 -7 3 3 -2 9 -12 12 -14 6 -15 5 -6 -5z"/>
<path d="M4320 2970 c-9 -6 -10 -10 -3 -10 6 0 15 5 18 10 8 12 4 12 -15 0z"/>
<path d="M4142 2937 c1 -15 7 -28 12 -28 16 0 15 29 -1 42 -12 11 -14 9 -11
-14z"/>
<path d="M710 2934 c0 -8 5 -12 10 -9 6 4 8 11 5 16 -9 14 -15 11 -15 -7z"/>
<path d="M4468 2928 c-2 -13 -2 -31 0 -40 6 -32 18 -19 20 22 3 42 -13 56 -20
18z"/>
<path d="M1573 2898 c-2 -23 -8 -45 -14 -49 -20 -12 2 -31 32 -27 21 3 29 0
30 -11 0 -9 2 -24 4 -34 2 -9 -3 -24 -11 -32 -13 -13 -12 -15 11 -21 37 -9 58
1 46 23 -10 19 -11 25 -11 47 0 8 -8 17 -17 19 -17 4 -17 5 0 6 9 0 17 6 17
12 0 6 -7 8 -16 5 -12 -4 -15 -2 -10 9 3 9 0 15 -8 15 -17 0 -23 16 -21 53 1
19 -3 27 -14 27 -12 0 -17 -11 -18 -42z"/>
<path d="M592 2895 c-1 -25 3 -35 13 -35 8 0 15 5 15 10 0 6 -6 10 -12 10 -10
0 -10 2 -1 8 8 5 8 11 -1 24 -11 15 -13 13 -14 -17z"/>
<path d="M1487 2923 c-14 -14 -6 -23 21 -22 23 2 24 2 4 6 -12 2 -20 9 -17 14
7 10 1 12 -8 2z"/>
<path d="M4400 2916 c0 -2 7 -7 16 -10 8 -3 12 -2 9 4 -6 10 -25 14 -25 6z"/>
<path d="M711 2894 c0 -11 3 -14 6 -6 3 7 2 16 -1 19 -3 4 -6 -2 -5 -13z"/>
<path d="M1490 2875 c0 -8 8 -15 18 -15 10 0 19 7 19 15 0 8 -9 15 -19 15 -10
0 -18 -7 -18 -15z"/>
<path d="M1832 2871 c-9 -5 -11 -17 -6 -34 5 -24 3 -27 -21 -27 -14 0 -24 4
-21 8 3 5 -1 9 -8 9 -8 0 -12 -6 -9 -14 3 -7 9 -13 15 -13 5 0 6 -4 3 -10 -3
-5 3 -10 14 -10 12 0 21 5 21 12 0 7 15 -1 33 -18 86 -78 154 -100 288 -91 97
6 143 18 190 50 27 18 35 32 42 71 12 72 4 84 -36 53 -105 -80 -377 -75 -477
9 -9 7 -21 10 -28 5z"/>
<path d="M1708 2863 c6 -2 18 -2 25 0 6 3 1 5 -13 5 -14 0 -19 -2 -12 -5z"/>
<path d="M910 2850 c8 -5 20 -10 25 -10 6 0 3 5 -5 10 -8 5 -19 10 -25 10 -5
0 -3 -5 5 -10z"/>
<path d="M1510 2841 l25 -9 -27 -1 c-34 -1 -44 -17 -19 -30 27 -15 53 -3 49
23 -2 14 -11 22 -28 23 l-25 2 25 -8z"/>
<path d="M1703 2835 c0 -12 3 -12 16 -3 9 7 18 14 20 15 2 2 -5 3 -16 3 -11 0
-20 -7 -20 -15z"/>
<path d="M615 2820 c-16 -7 -17 -9 -3 -9 9 -1 20 4 23 9 7 11 7 11 -20 0z"/>
<path d="M952 2780 c-2 -21 2 -30 13 -30 11 0 15 9 13 30 -1 17 -7 30 -13 30
-6 0 -12 -13 -13 -30z"/>
<path d="M1687 2780 c-16 -19 -15 -19 16 -13 18 3 37 10 42 15 6 6 3 7 -9 2
-10 -4 -21 -2 -25 4 -5 8 -12 5 -24 -8z"/>
<path d="M721 2783 c-1 -7 8 -17 19 -23 14 -7 20 -7 20 0 0 5 -6 10 -14 10 -8
0 -17 6 -19 13 -4 9 -6 9 -6 0z"/>
<path d="M4618 2773 c7 -3 16 -2 19 1 4 3 -2 6 -13 5 -11 0 -14 -3 -6 -6z"/>
<path d="M536 2763 c-3 -3 -6 -15 -6 -25 0 -25 25 -23 27 2 2 21 -10 34 -21
23z"/>
<path d="M608 2763 c7 -3 16 -2 19 1 4 3 -2 6 -13 5 -11 0 -14 -3 -6 -6z"/>
<path d="M1783 2748 c-1 -13 -7 -24 -12 -26 -14 -5 -2 -32 14 -32 7 0 17 18
23 40 9 35 8 40 -7 40 -10 0 -17 -9 -18 -22z"/>
<path d="M860 2726 c0 -19 4 -38 10 -41 6 -4 9 10 8 34 -2 50 -18 55 -18 7z"/>
<path d="M1702 2729 c-1 -16 -3 -35 -5 -42 -1 -6 8 -13 21 -15 14 -2 20 -8 16
-15 -4 -7 2 -4 12 6 12 11 15 20 9 25 -10 7 -16 23 -18 54 -2 32 -33 21 -35
-13z"/>
<path d="M4617 2753 c-7 -15 -2 -36 11 -40 7 -3 12 5 12 21 0 24 -14 36 -23
19z"/>
<path d="M800 2740 c-9 -6 -10 -10 -3 -10 6 0 15 5 18 10 8 12 4 12 -15 0z"/>
<path d="M1470 2740 c-9 -6 -10 -10 -3 -10 6 0 15 5 18 10 8 12 4 12 -15 0z"/>
<path d="M1202 2726 c7 -7 19 -11 25 -9 22 9 14 23 -12 23 -21 0 -24 -2 -13
-14z"/>
<path d="M4530 2720 c0 -5 7 -10 16 -10 8 0 12 5 9 10 -3 6 -10 10 -16 10 -5
0 -9 -4 -9 -10z"/>
<path d="M1520 2700 c0 -5 7 -7 15 -4 8 4 15 8 15 10 0 2 -7 4 -15 4 -8 0 -15
-4 -15 -10z"/>
<path d="M4530 2680 c0 -11 4 -20 9 -20 11 0 22 26 14 34 -12 12 -23 5 -23
-14z"/>
<path d="M1118 2683 c6 -2 18 -2 25 0 6 3 1 5 -13 5 -14 0 -19 -2 -12 -5z"/>
<path d="M1176 2663 c8 -34 14 -42 14 -20 0 8 5 17 10 19 6 2 1 9 -10 16 -19
12 -20 11 -14 -15z"/>
<path d="M1565 2681 c-3 -5 -1 -12 5 -16 5 -3 11 -36 11 -73 1 -37 3 -59 6
-49 4 16 24 25 22 10 -1 -5 0 -17 1 -28 2 -11 6 7 10 40 l7 60 1 -63 c1 -43 6
-61 13 -56 6 3 9 19 7 35 -3 16 -1 29 4 29 4 0 9 -21 10 -47 1 -48 1 -48 8 12
l7 60 1 -64 c2 -55 4 -62 17 -51 12 10 15 9 15 -5 0 -34 12 -7 16 36 2 23 10
49 17 58 8 9 8 12 1 8 -7 -4 -15 0 -18 9 -3 8 -10 12 -16 9 -5 -3 -10 2 -10
13 0 15 -5 18 -25 14 -16 -3 -25 0 -25 8 0 7 -6 10 -13 7 -8 -3 -20 3 -28 14
-7 10 -19 19 -27 19 -7 0 -10 5 -7 10 3 6 4 10 1 10 -3 0 -7 -4 -11 -9z m45
-82 c0 -16 -4 -29 -10 -29 -5 0 -10 16 -10 36 0 21 4 33 10 29 6 -3 10 -19 10
-36z m97 -91 c-3 -7 -5 -2 -5 12 0 14 2 19 5 13 2 -7 2 -19 0 -25z"/>
<path d="M1060 2645 c0 -8 7 -15 16 -15 14 0 14 3 4 15 -7 8 -14 15 -16 15 -2
0 -4 -7 -4 -15z"/>
<path d="M1270 2641 c0 -5 11 -11 25 -13 20 -4 23 -3 14 8 -13 16 -39 19 -39
5z"/>
<path d="M967 2629 c7 -7 15 -10 18 -7 3 3 -2 9 -12 12 -14 6 -15 5 -6 -5z"/>
<path d="M1424 2615 c-7 -30 3 -46 16 -25 6 9 6 16 0 18 -5 2 -6 10 -3 18 3 8
2 14 -1 14 -3 0 -8 -11 -12 -25z"/>
<path d="M4315 2630 c-3 -6 1 -7 9 -4 18 7 21 14 7 14 -6 0 -13 -4 -16 -10z"/>
<path d="M1060 2610 c0 -5 7 -10 16 -10 8 0 12 5 9 10 -3 6 -10 10 -16 10 -5
0 -9 -4 -9 -10z"/>
<path d="M1359 2591 c10 -10 28 -21 41 -24 l22 -6 -21 22 c-11 13 -29 23 -40
24 -19 2 -19 1 -2 -16z"/>
<path d="M4050 2569 c0 -30 5 -31 38 -6 9 8 8 13 -5 23 -27 20 -33 17 -33 -17z"/>
<path d="M1010 2575 c-10 -12 -10 -15 4 -15 9 0 16 7 16 15 0 8 -2 15 -4 15
-2 0 -9 -7 -16 -15z"/>
<path d="M1755 2559 c-4 -6 -5 -12 -2 -15 2 -3 7 2 10 11 7 17 1 20 -8 4z"/>
<path d="M1083 2553 c9 -2 23 -2 30 0 6 3 -1 5 -18 5 -16 0 -22 -2 -12 -5z"/>
<path d="M1480 2541 c14 -11 31 -21 38 -21 6 0 12 -4 12 -10 0 -5 5 -10 10
-10 24 0 6 18 -37 38 -44 21 -46 21 -23 3z"/>
<path d="M1202 2532 l-24 -18 27 -18 c15 -10 30 -15 33 -11 4 3 0 10 -7 15 -8
4 -12 17 -8 29 3 12 4 21 4 21 -1 0 -13 -9 -25 -18z"/>
<path d="M1260 2541 c0 -12 37 -34 51 -29 5 2 -4 11 -21 21 -16 10 -30 14 -30
8z"/>
<path d="M1428 2543 c7 -3 16 -2 19 1 4 3 -2 6 -13 5 -11 0 -14 -3 -6 -6z"/>
<path d="M920 2510 c0 -16 5 -30 11 -30 5 0 7 5 4 10 -3 6 -2 10 4 10 5 0 9 9
8 20 -2 33 -27 23 -27 -10z"/>
<path d="M1078 2533 c7 -3 16 -2 19 1 4 3 -2 6 -13 5 -11 0 -14 -3 -6 -6z"/>
<path d="M1420 2505 c0 -16 5 -23 13 -19 7 2 13 13 13 24 0 11 -6 20 -13 20
-7 0 -13 -11 -13 -25z"/>
<path d="M1000 2500 c0 -5 7 -10 16 -10 8 0 12 5 9 10 -3 6 -10 10 -16 10 -5
0 -9 -4 -9 -10z"/>
<path d="M1283 2487 c-13 -5 -23 -13 -23 -17 0 -10 191 -122 197 -116 3 3 -20
21 -51 41 -50 32 -56 39 -56 69 0 28 -4 33 -22 33 -13 0 -33 -4 -45 -10z m47
-17 c-7 -4 -9 -13 -5 -20 5 -8 0 -7 -14 2 -24 15 -27 24 -8 31 19 7 41 -4 27
-13z"/>
<path d="M1623 2455 c70 -47 77 -50 77 -37 0 8 -121 82 -135 82 -5 0 21 -20
58 -45z"/>
<path d="M4356 2475 c4 -8 8 -15 10 -15 2 0 4 7 4 15 0 8 -4 15 -10 15 -5 0
-7 -7 -4 -15z"/>
<path d="M1000 2470 c0 -5 5 -10 10 -10 6 0 10 5 10 10 0 6 -4 10 -10 10 -5 0
-10 -4 -10 -10z"/>
<path d="M4255 2430 c-4 -12 1 -30 12 -44 20 -28 49 -35 39 -11 -6 17 9 21 19
5 3 -5 14 -10 23 -10 13 0 12 5 -8 24 -14 13 -28 21 -32 19 -5 -2 -8 2 -8 11
0 8 6 17 13 19 6 3 -2 6 -20 6 -23 1 -33 -4 -38 -19z"/>
<path d="M4390 2360 c0 -5 14 -10 30 -10 17 0 30 5 30 10 0 6 -13 10 -30 10
-16 0 -30 -4 -30 -10z"/>
<path d="M4460 2350 c0 -6 17 -10 37 -10 43 0 41 5 -4 13 -19 4 -33 2 -33 -3z"/>
<path d="M890 2325 c0 -17 35 -55 50 -55 6 0 10 -5 10 -11 0 -6 -9 -8 -21 -4
-18 6 -20 4 -14 -17 4 -12 16 -38 27 -55 11 -18 16 -33 13 -33 -4 0 -2 -6 4
-13 6 -8 8 -16 5 -20 -3 -3 -3 -15 1 -26 4 -14 15 -21 33 -21 l27 0 -28 -18
c-15 -10 -25 -21 -22 -24 3 -2 -15 -15 -40 -28 -24 -13 -52 -31 -61 -41 -10
-11 -22 -19 -29 -19 -7 0 -22 -9 -35 -20 -29 -25 -47 -25 -87 -1 -44 27 -50
14 -6 -16 19 -13 38 -22 41 -19 3 3 11 -2 18 -12 8 -10 13 -12 14 -4 0 6 5 12
11 12 6 0 9 -6 7 -12 -3 -7 14 -24 36 -38 55 -35 75 -45 52 -26 -11 9 -15 16
-9 16 5 0 20 -9 33 -20 13 -11 29 -20 37 -20 8 0 11 -5 7 -12 -5 -8 -2 -9 9
-5 11 4 17 1 17 -8 0 -9 6 -12 17 -8 11 4 14 3 9 -5 -4 -7 12 -21 44 -36 27
-13 50 -20 50 -15 0 14 -62 49 -73 42 -6 -4 -8 9 -4 33 6 34 3 44 -19 67 -13
15 -29 27 -35 27 -6 0 -8 4 -5 9 11 18 60 -4 66 -30 l6 -24 6 23 c4 13 2 22
-5 22 -6 0 -2 7 9 15 10 8 15 15 10 15 -5 0 -3 6 3 14 7 8 14 26 17 40 2 14 6
38 9 52 2 15 6 29 9 31 3 3 -1 12 -9 19 -15 15 -10 44 7 44 6 0 8 -7 4 -15 -3
-8 -2 -15 2 -15 12 0 32 60 25 76 -3 8 0 14 7 14 6 0 10 10 8 21 -2 15 -38 43
-123 95 -66 40 -123 73 -127 74 -5 0 -8 -7 -8 -15z m159 -122 c29 -17 41 -33
24 -33 -11 0 -73 39 -73 45 0 10 18 5 49 -12z m-39 -314 c0 -14 -17 -10 -23 5
-4 10 -1 13 9 9 7 -3 14 -9 14 -14z"/>
<path d="M4314 2324 c28 -28 17 -36 -19 -14 -19 12 -40 20 -47 18 -7 -3 2 -13
20 -23 19 -12 30 -25 27 -33 -3 -9 1 -12 13 -8 9 3 23 2 30 -3 10 -6 7 -10
-13 -15 -37 -9 -24 -20 14 -11 28 6 31 10 31 46 0 22 -4 38 -9 35 -5 -3 -14 1
-21 9 -7 8 -19 15 -27 15 -12 0 -12 -3 1 -16z"/>
<path d="M1473 2290 c-2 -28 1 -40 11 -40 16 0 29 27 17 35 -5 3 -7 14 -4 25
3 13 0 20 -8 20 -9 0 -15 -14 -16 -40z"/>
<path d="M842 2280 c-20 -35 -21 -41 -7 -46 16 -6 65 20 65 35 0 5 -7 11 -15
15 -8 3 -12 12 -9 21 12 31 -12 13 -34 -25z"/>
<path d="M2128 2271 c-43 -25 -78 -49 -78 -52 0 -6 205 -128 221 -132 9 -2
189 96 189 103 0 3 -21 17 -47 30 -26 14 -75 42 -110 63 -34 20 -71 36 -80 36
-10 -1 -53 -22 -95 -48z"/>
<path d="M4390 2310 c0 -5 5 -10 11 -10 5 0 7 5 4 10 -3 6 -8 10 -11 10 -2 0
-4 -4 -4 -10z"/>
<path d="M750 2297 c0 -8 -8 -18 -17 -20 -17 -4 -17 -5 0 -6 18 -1 35 25 23
36 -3 4 -6 -1 -6 -10z"/>
<path d="M816 2293 c-4 -5 -13 -8 -19 -8 -18 0 -14 -29 4 -33 9 -1 20 8 27 23
11 24 4 34 -12 18z"/>
<path d="M1714 2263 c-4 -21 -9 -33 -11 -26 -3 9 -10 9 -29 1 -18 -8 -31 -8
-49 0 l-25 12 0 -75 c0 -61 3 -75 18 -79 9 -3 22 -16 27 -28 14 -32 79 -38 97
-9 17 28 36 27 40 -1 2 -19 10 -24 46 -26 38 -3 43 0 52 23 6 15 8 31 4 36 -3
5 0 9 6 9 8 0 9 10 5 29 -5 25 -2 33 19 46 47 31 30 115 -23 115 -29 0 -41
-15 -41 -48 0 -23 -82 -29 -99 -8 -7 8 -10 19 -7 25 3 5 0 11 -6 14 -7 3 1 4
17 3 44 -2 47 18 3 22 -36 3 -37 2 -44 -35z"/>
<path d="M1388 2245 c-3 -29 -1 -35 14 -35 13 0 18 8 18 25 0 14 -6 25 -12 25
-9 0 -8 4 2 10 13 8 13 10 -1 10 -12 0 -18 -11 -21 -35z"/>
<path d="M4450 2270 c19 -13 30 -13 30 0 0 6 -10 10 -22 10 -19 0 -20 -2 -8
-10z"/>
<path d="M650 2244 c0 -10 10 -30 21 -44 l20 -25 -12 25 c-7 14 -14 31 -15 38
-4 23 -14 27 -14 6z"/>
<path d="M4495 2250 c3 -5 11 -10 16 -10 6 0 7 5 4 10 -3 6 -11 10 -16 10 -6
0 -7 -4 -4 -10z"/>
<path d="M4220 2230 c-33 -25 -21 -34 29 -20 36 10 40 13 27 25 -19 19 -26 19
-56 -5z"/>
<path d="M710 2205 c33 -19 49 -19 24 0 -10 8 -26 14 -34 14 -9 0 -4 -6 10
-14z"/>
<path d="M3930 2208 c0 -5 10 -8 23 -9 20 -1 21 -1 2 -7 -16 -6 -20 -16 -21
-49 -1 -39 1 -43 22 -43 12 0 26 5 29 10 3 6 2 10 -3 10 -5 0 -8 21 -8 48 2
43 0 47 -21 47 -13 0 -23 -3 -23 -7z"/>
<path d="M840 2201 c0 -5 -13 -11 -30 -14 -27 -6 -30 -10 -30 -47 0 -27 4 -39
11 -35 6 4 8 13 5 20 -2 7 1 16 8 18 18 7 60 67 47 67 -6 0 -11 -4 -11 -9z"/>
<path d="M873 2188 c-23 -26 -36 -58 -24 -58 15 0 71 31 71 40 0 15 -12 40
-19 40 -4 0 -17 -10 -28 -22z"/>
<path d="M1205 2200 c-3 -5 1 -10 9 -10 8 0 18 5 21 10 3 6 -1 10 -9 10 -8 0
-18 -4 -21 -10z"/>
<path d="M1264 2195 c11 -8 27 -15 35 -15 13 1 12 4 -3 15 -11 8 -27 15 -35
15 -13 -1 -12 -4 3 -15z"/>
<path d="M2490 2075 c0 -63 2 -115 5 -115 3 0 13 4 23 9 9 4 57 27 106 50 49
23 85 46 80 50 -12 10 -204 121 -210 121 -2 0 -4 -52 -4 -115z"/>
<path d="M4031 2181 c-8 -5 -16 -25 -17 -44 -2 -19 -5 -41 -6 -48 -3 -15 26
-24 49 -15 11 4 12 10 5 19 -5 6 -9 31 -7 55 2 44 -1 48 -24 33z"/>
<path d="M705 2141 c3 -17 0 -18 -25 -11 -16 5 -34 11 -39 14 -5 4 5 -16 22
-44 93 -149 97 -151 97 -40 0 45 -4 79 -9 76 -5 -3 -14 1 -21 9 -17 21 -30 19
-25 -4z"/>
<path d="M1164 2149 c-7 -12 13 -29 33 -29 23 0 22 17 -2 28 -17 8 -26 8 -31
1z"/>
<path d="M3410 2119 c0 -24 4 -38 10 -34 6 3 10 22 10 41 0 19 -4 34 -10 34
-5 0 -10 -18 -10 -41z"/>
<path d="M3480 2126 c0 -18 7 -39 15 -46 30 -25 4 -70 -41 -70 -14 0 -24 -6
-24 -15 0 -20 -37 -38 -66 -31 -17 5 -24 2 -24 -8 0 -20 -35 -38 -63 -34 -14
2 -26 -4 -32 -17 -16 -30 -80 -33 -95 -5 -9 17 -8 26 4 45 15 22 22 65 11 65
-2 0 -16 -5 -30 -12 -23 -10 -25 -16 -20 -49 4 -21 2 -47 -5 -58 -27 -51 -126
-67 -193 -31 -41 22 -51 10 -13 -15 49 -32 153 -27 189 10 17 16 27 10 27 -16
0 -16 104 -89 127 -89 5 0 15 11 21 25 7 14 19 24 29 24 17 -1 17 -2 1 -6 -20
-5 -34 -45 -22 -64 5 -8 2 -10 -8 -6 -22 8 -31 -29 -12 -48 55 -54 204 -32
204 30 0 25 -14 33 -25 15 -10 -17 -78 -29 -115 -21 -33 8 -32 8 15 8 55 0 95
16 95 38 0 24 -12 45 -26 45 -29 0 -12 20 46 55 33 20 60 39 60 42 0 4 -8 16
-17 27 -10 12 -14 18 -9 14 8 -7 84 35 99 56 5 6 7 2 4 -11 -4 -19 -1 -23 18
-23 21 0 24 4 22 35 -2 30 -6 35 -26 35 -17 0 -22 4 -17 16 3 9 6 18 6 20 0
13 31 1 44 -18 15 -21 17 -22 33 -5 17 17 17 19 -2 33 -32 24 -161 94 -174 94
-6 0 -11 -15 -11 -34z m125 -126 c3 -6 -1 -7 -9 -4 -18 7 -21 14 -7 14 6 0 13
-4 16 -10z m-264 -198 c-7 -2 -18 1 -23 6 -8 8 -4 9 13 5 13 -4 18 -8 10 -11z"/>
<path d="M3806 2139 c3 -5 11 -9 19 -9 8 0 16 4 19 9 3 5 -5 9 -19 9 -14 0
-22 -4 -19 -9z"/>
<path d="M916 2114 c-3 -9 -3 -21 1 -26 3 -6 2 -8 -3 -5 -15 9 -41 -10 -29
-22 16 -16 65 -25 65 -12 0 6 -4 11 -9 11 -6 0 -8 9 -6 20 2 11 0 20 -5 20 -5
0 -7 7 -4 15 4 8 4 15 1 15 -3 0 -8 -7 -11 -16z"/>
<path d="M1250 2092 c1 -35 2 -36 15 -18 19 25 19 42 0 50 -12 4 -15 -3 -15
-32z"/>
<path d="M3328 2109 c-13 -7 -18 -23 -18 -54 0 -24 4 -46 8 -49 12 -7 34 50
30 83 -3 25 -6 28 -20 20z"/>
<path d="M3800 2116 c0 -2 9 -6 20 -9 11 -3 20 -1 20 4 0 5 -9 9 -20 9 -11 0
-20 -2 -20 -4z"/>
<path d="M1183 2095 c-37 -16 -41 -26 -17 -46 9 -7 20 -24 25 -37 5 -13 13
-21 18 -17 5 3 12 -3 14 -12 3 -10 6 2 7 27 1 25 4 57 6 73 5 31 -5 33 -53 12z"/>
<path d="M1282 2086 c-9 -21 -8 -24 14 -29 14 -2 22 -2 19 1 -2 3 0 11 6 18 7
9 5 15 -9 23 -16 8 -21 6 -30 -13z"/>
<path d="M3883 2095 c0 -8 9 -15 19 -15 10 0 18 7 18 15 0 8 -8 15 -18 15 -10
0 -19 -7 -19 -15z"/>
<path d="M828 2086 c-16 -12 -15 -13 12 -14 20 0 30 4 30 14 0 17 -19 18 -42
0z"/>
<path d="M624 2074 c3 -8 0 -11 -9 -8 -8 3 -16 -4 -20 -17 -8 -25 14 -48 49
-51 41 -3 45 -3 53 -12 5 -5 2 -6 -7 -1 -13 8 -13 7 -1 -8 7 -9 18 -17 23 -17
13 0 -43 101 -59 107 -7 3 -11 8 -8 12 2 4 -3 8 -11 8 -8 0 -13 -6 -10 -13z"/>
<path d="M3728 2078 c9 -9 15 -9 24 0 9 9 7 12 -12 12 -19 0 -21 -3 -12 -12z"/>
<path d="M1336 2062 c-4 -7 -4 -21 -1 -33 5 -16 3 -20 -11 -17 -11 2 -20 -6
-25 -24 -7 -26 -6 -26 19 -17 15 6 33 16 41 22 11 9 15 9 18 -1 3 -6 8 -10 13
-7 10 6 80 -34 80 -46 0 -13 -4 -12 -44 12 l-36 21 0 -20 c0 -12 4 -23 9 -26
5 -3 12 -23 16 -43 3 -21 13 -58 21 -82 8 -24 13 -44 12 -45 -27 -11 -138 -72
-138 -76 0 -3 -15 -13 -32 -23 -32 -16 -78 -20 -78 -6 0 11 -58 32 -72 26 -8
-3 1 -12 22 -22 91 -43 115 -61 118 -88 3 -28 32 -39 32 -12 0 16 49 45 75 45
10 0 29 8 43 18 37 26 60 33 68 21 8 -13 80 -2 114 18 l25 14 -30 -4 c-16 -2
-39 -7 -50 -11 -18 -7 -18 -6 2 12 12 11 20 22 17 25 -11 11 57 49 79 43 21
-5 232 -128 251 -147 6 -5 0 -12 -15 -18 -16 -7 -19 -10 -7 -10 9 -1 20 4 23
9 7 12 25 13 25 2 0 -5 -16 -15 -35 -22 -20 -8 -41 -20 -47 -27 -6 -7 -19 -13
-29 -13 -11 0 -19 -4 -19 -9 0 -5 -30 -26 -67 -46 -149 -82 -208 -123 -211
-148 -1 -21 14 -33 113 -91 64 -37 120 -64 125 -61 6 3 10 17 10 29 0 23 71
67 479 302 209 120 287 164 294 164 5 0 18 -5 30 -11 31 -16 -41 48 -76 67
-16 8 -27 20 -24 27 2 6 39 33 83 59 81 50 90 63 58 99 -8 8 -14 25 -14 37 0
12 -2 22 -4 22 -2 0 -43 -23 -92 -51 -378 -219 -436 -250 -451 -245 -8 4 -61
34 -117 68 -212 129 -522 315 -544 327 -21 11 -22 11 -17 -16 4 -23 3 -22 -8
6 -9 23 -16 31 -21 23z m230 -173 c19 -11 32 -25 29 -29 -6 -10 -75 28 -75 41
0 13 9 11 46 -12z m1034 -38 c0 -11 -62 -51 -79 -51 -20 0 -2 19 37 40 44 23
42 22 42 11z m-902 -43 c20 -12 31 -23 24 -26 -14 -4 -72 26 -72 38 0 15 9 12
48 -12z m752 -48 c0 -12 -80 -54 -88 -46 -6 7 -7 6 38 34 39 24 50 27 50 12z
m-945 -20 c3 -6 -1 -7 -9 -4 -18 7 -21 14 -7 14 6 0 13 -4 16 -10z m322 -11
c19 -12 31 -24 28 -27 -7 -8 -75 28 -75 40 0 12 10 10 47 -13z m473 -56 c0
-11 -81 -56 -88 -49 -7 7 -5 9 38 35 37 22 50 26 50 14z m-980 -18 c-7 -9 -15
-13 -19 -10 -3 3 1 10 9 15 21 14 24 12 10 -5z m636 -7 c21 -12 32 -24 26 -26
-11 -3 -82 34 -82 44 0 9 21 3 56 -18z m-586 8 c0 -2 -9 -6 -20 -9 -11 -3 -18
-1 -14 4 5 9 34 13 34 5z m140 -6 c0 -5 -2 -10 -4 -10 -3 0 -8 5 -11 10 -3 6
-1 10 4 10 6 0 11 -4 11 -10z m-210 -44 c0 -3 -4 -8 -10 -11 -5 -3 -10 -1 -10
4 0 6 5 11 10 11 6 0 10 -2 10 -4z m845 -26 c-9 -15 -85 -52 -85 -41 0 11 60
51 78 51 7 0 10 -5 7 -10z m-145 -84 c0 -10 -90 -54 -95 -46 -3 5 11 18 32 29
36 19 63 26 63 17z m-175 -103 c-35 -25 -75 -44 -75 -34 0 12 82 62 90 55 3
-3 -4 -12 -15 -21z m-135 -73 c0 -12 -40 -34 -48 -26 -3 4 3 13 14 21 22 17
34 19 34 5z"/>
<path d="M3237 2052 c-13 -14 -17 -32 -15 -58 l3 -38 18 27 c10 16 17 41 15
59 -3 30 -3 30 -21 10z"/>
<path d="M3717 2043 c-2 -13 -1 -23 3 -23 4 0 7 -7 7 -15 0 -8 -13 -17 -29
-20 -15 -4 -28 -12 -29 -18 -4 -52 -7 -65 -13 -75 -8 -13 25 -25 48 -16 9 3
13 11 10 16 -4 5 -8 27 -10 48 -4 37 -4 37 33 36 22 -1 38 4 41 13 3 10 -2 11
-19 6 -13 -3 -19 -3 -14 2 6 4 12 22 13 38 3 25 -1 31 -17 31 -12 0 -21 -9
-24 -23z"/>
<path d="M3888 2063 c6 -2 18 -2 25 0 6 3 1 5 -13 5 -14 0 -19 -2 -12 -5z"/>
<path d="M780 2009 l1 -54 29 35 c32 37 38 60 16 60 -8 0 -21 3 -30 6 -13 5
-16 -3 -16 -47z"/>
<path d="M3805 2030 c1 -16 0 -30 -4 -30 -3 0 -7 -11 -7 -25 -2 -20 3 -25 21
-25 26 0 41 15 25 25 -6 4 -8 11 -5 16 4 5 0 9 -7 9 -8 0 -9 3 -3 8 6 4 11 17
13 30 2 16 -2 22 -16 22 -16 0 -19 -6 -17 -30z"/>
<path d="M3880 2041 c0 -5 -3 -16 -6 -25 -5 -13 1 -16 25 -16 17 0 31 5 31 10
0 6 -4 10 -10 10 -5 0 -7 7 -4 15 4 10 0 15 -15 15 -12 0 -21 -4 -21 -9z"/>
<path d="M530 2026 c-9 -12 -4 -19 29 -36 42 -21 57 -15 20 8 -12 8 -18 19
-15 28 7 18 -18 18 -34 0z"/>
<path d="M840 2010 c-36 -51 -20 -65 35 -29 17 10 41 23 54 29 30 13 26 16
-26 23 -39 5 -45 2 -63 -23z"/>
<path d="M1131 2030 c1 -8 -5 -32 -14 -52 -29 -65 -25 -72 39 -65 31 3 58 8
61 11 5 5 -4 17 -65 93 -13 15 -22 21 -21 13z"/>
<path d="M1265 2027 c-12 -9 -14 -16 -7 -21 6 -4 8 -14 5 -24 -3 -9 4 -4 17
11 26 32 16 56 -15 34z"/>
<path d="M2692 2012 l-54 -27 46 -5 c29 -4 55 -14 68 -28 l22 -22 -22 -30
c-26 -35 -26 -35 16 -14 28 13 32 21 32 54 0 21 3 45 6 54 4 10 -5 20 -25 30
-16 9 -31 16 -33 16 -2 0 -27 -13 -56 -28z"/>
<path d="M4160 1995 c0 -38 3 -45 19 -45 11 0 22 4 25 9 9 13 -13 69 -30 75
-11 4 -14 -5 -14 -39z"/>
<path d="M2934 2016 c-38 -17 -47 -30 -39 -55 19 -60 195 -53 195 8 0 46 -95
75 -156 47z"/>
<path d="M4232 1991 c13 -22 28 -28 28 -11 0 5 -9 14 -20 20 -19 10 -20 10 -8
-9z"/>
<path d="M610 1972 c0 -12 50 -46 57 -38 8 8 -7 27 -17 21 -5 -3 -16 2 -24 11
-9 8 -16 11 -16 6z"/>
<path d="M1360 1958 c0 -7 -13 -26 -28 -43 -34 -37 -65 -85 -55 -85 16 1 43
27 35 34 -4 4 -2 6 3 4 14 -4 75 22 75 33 0 4 -8 13 -17 18 -10 6 -12 11 -5
11 14 0 17 40 2 40 -5 0 -10 -6 -10 -12z"/>
<path d="M2629 1944 c-11 -14 -10 -18 6 -30 25 -19 69 -18 86 2 11 14 10 18
-6 30 -10 8 -23 14 -29 14 -5 0 -2 -6 9 -13 22 -17 12 -37 -19 -37 -32 0 -39
10 -19 32 14 16 14 18 1 18 -9 0 -22 -7 -29 -16z"/>
<path d="M4306 1945 c4 -8 12 -15 20 -15 20 0 17 7 -6 20 -16 9 -18 8 -14 -5z"/>
<path d="M3932 1930 c-12 -12 -22 -18 -22 -14 0 3 -6 1 -13 -5 -8 -6 -17 -8
-20 -4 -4 3 -7 2 -7 -3 0 -5 -13 -17 -29 -27 -27 -16 -28 -19 -24 -79 6 -73
13 -90 13 -30 0 50 17 56 23 10 3 -26 4 -23 7 17 l3 50 7 -45 7 -45 1 52 c3
70 21 79 24 11 1 -52 2 -51 8 17 l6 70 2 -59 c2 -72 11 -69 16 5 5 74 8 74 16
4 l7 -60 1 78 c1 42 1 77 -1 77 -2 0 -13 -9 -25 -20z"/>
<path d="M3605 1932 c30 -5 30 -5 5 -11 -19 -5 -21 -8 -9 -13 20 -8 44 6 35
21 -4 6 -19 10 -34 10 -26 -2 -26 -2 3 -7z"/>
<path d="M1269 1923 c-12 -3 -17 -16 -17 -46 l-1 -42 20 25 c10 14 23 30 29
37 22 27 10 37 -31 26z"/>
<path d="M4380 1903 c13 -28 27 -37 27 -18 0 8 -3 13 -5 10 -3 -3 -11 3 -19
13 -13 15 -13 15 -3 -5z"/>
<path d="M1143 1888 l-42 -9 57 -89 c31 -50 60 -90 64 -90 4 0 7 45 7 100 1
113 4 109 -86 88z"/>
<path d="M2774 1865 c-19 -15 -19 -15 0 -30 11 -8 25 -15 30 -15 6 0 5 4 -3 9
-19 12 -6 41 19 41 25 0 38 -29 19 -41 -16 -10 -8 -12 15 -3 9 3 16 14 16 24
0 32 -62 41 -96 15z"/>
<path d="M3540 1865 c0 -8 5 -15 10 -15 6 0 10 -10 10 -22 0 -14 3 -18 8 -11
4 6 8 -22 9 -63 l2 -74 -27 0 c-15 0 -38 -7 -51 -16 -18 -13 -22 -23 -17 -48
5 -29 5 -30 -9 -12 -8 10 -12 23 -9 27 3 5 -14 2 -37 -6 -54 -19 -102 -19
-140 1 -17 8 -33 13 -35 11 -3 -3 -7 -35 -9 -73 -3 -37 -9 -72 -14 -77 -13
-13 -101 1 -102 16 0 7 -4 2 -9 -10 -10 -25 -1 -71 10 -53 5 9 19 5 48 -14 50
-31 52 -31 52 -7 0 11 5 23 11 27 8 5 9 -6 4 -35 -4 -22 -4 -41 0 -41 3 0 24
9 45 20 22 11 40 18 40 15 0 -2 -13 -11 -30 -20 -34 -17 -35 -32 -3 -57 26
-22 43 -23 43 -2 0 11 -6 14 -20 9 -11 -3 -20 -2 -20 3 0 5 9 17 20 27 11 10
20 24 20 32 0 7 7 13 15 13 26 0 96 -40 90 -51 -4 -5 10 -26 31 -46 36 -34 36
-36 11 -31 -19 4 -27 0 -30 -14 -6 -23 -5 -22 43 2 49 25 70 25 123 0 40 -20
41 -20 20 -1 -26 22 -29 31 -10 31 22 0 38 47 31 92 -6 33 -4 44 11 55 12 8
14 13 6 13 -7 0 -11 6 -8 13 3 8 1 20 -3 27 -7 11 -14 11 -39 0 -44 -18 -140
-9 -157 15 -8 10 -12 20 -11 22 2 1 28 -3 59 -9 46 -10 63 -9 94 3 34 13 39
20 42 49 3 33 3 34 -15 17 -25 -22 -105 -33 -129 -18 -16 10 -13 11 20 7 41
-6 106 15 106 34 0 6 -5 20 -10 31 -16 29 5 24 35 -8 l25 -28 0 98 c0 71 -3
97 -12 97 -7 0 -39 16 -71 35 -66 40 -67 40 -67 20z m97 -167 c-3 -7 -5 -2 -5
12 0 14 2 19 5 13 2 -7 2 -19 0 -25z m-177 -283 c0 -26 -14 -33 -25 -15 -9 14
1 40 15 40 5 0 10 -11 10 -25z"/>
<path d="M4440 1872 c0 -4 14 -13 30 -21 l31 -13 -78 -45 c-43 -25 -103 -59
-133 -77 -30 -18 -86 -51 -125 -73 -271 -156 -265 -152 -265 -188 l0 -33 183
106 c100 58 234 136 297 173 109 63 115 66 128 48 14 -20 47 -25 57 -9 3 6 -5
10 -18 10 -26 0 -36 20 -37 70 0 18 -10 30 -35 42 -19 10 -35 14 -35 10z"/>
<path d="M1366 1833 c-26 -41 -23 -46 33 -57 31 -6 33 -5 27 19 -9 37 -25 75
-31 75 -2 0 -15 -17 -29 -37z"/>
<path d="M4580 1827 l0 -45 73 -43 c39 -23 97 -57 127 -75 l55 -33 13 31 c7
17 11 36 9 42 -3 6 -56 40 -118 75 -63 36 -124 71 -136 79 -23 14 -23 14 -23
-31z"/>
<path d="M1075 1823 c-4 -21 -11 -43 -16 -49 -12 -14 1 -24 69 -53 62 -26 76
-21 40 12 -13 12 -23 27 -21 33 2 5 -6 20 -17 32 -11 11 -20 25 -20 30 0 5 -6
15 -14 21 -11 9 -15 4 -21 -26z"/>
<path d="M1300 1830 c-28 -15 -32 -20 -18 -25 26 -10 49 -2 66 23 19 28 2 29
-48 2z"/>
<path d="M2197 1817 c-55 -31 -74 -57 -41 -57 24 0 114 53 114 67 0 23 -17 21
-73 -10z"/>
<path d="M2880 1793 c0 -43 116 -68 184 -39 53 22 41 28 -17 9 -40 -13 -55
-14 -90 -3 -23 6 -50 19 -59 28 -10 8 -18 11 -18 5z"/>
<path d="M4870 1785 c-8 -11 -10 -16 -4 -12 6 3 18 -3 27 -14 9 -10 24 -19 33
-19 14 0 14 -3 4 -16 -12 -13 -10 -14 14 -3 23 11 32 9 68 -11 27 -15 39 -18
36 -9 -3 8 -15 20 -29 26 -21 11 -22 13 -4 13 11 0 26 10 34 23 13 21 13 22
-6 5 -36 -32 -148 -17 -155 20 -2 13 -6 12 -18 -3z"/>
<path d="M1256 1774 c-10 -27 -7 -86 5 -79 6 4 8 9 5 12 -2 2 4 13 15 24 24
24 24 36 0 48 -15 8 -20 7 -25 -5z"/>
<path d="M3551 1774 c0 -11 3 -14 6 -6 3 7 2 16 -1 19 -3 4 -6 -2 -5 -13z"/>
<path d="M1305 1735 c-15 -19 -25 -38 -23 -43 1 -5 30 7 63 27 56 33 58 35 35
42 -43 12 -48 10 -75 -26z"/>
<path d="M2600 1731 c0 -16 43 -41 72 -41 39 0 78 17 78 35 0 12 -5 13 -17 7
-20 -10 -77 -9 -110 2 -14 4 -23 3 -23 -3z"/>
<path d="M2890 1695 c39 -47 144 -55 193 -14 22 19 21 19 -18 3 -45 -19 -107
-14 -158 12 -31 16 -31 16 -17 -1z"/>
<path d="M4980 1706 c0 -3 9 -10 20 -16 11 -6 20 -8 20 -6 0 3 -9 10 -20 16
-11 6 -20 8 -20 6z"/>
<path d="M4880 1693 c0 -13 52 -53 69 -53 23 0 10 18 -21 31 -18 7 -36 18 -40
23 -5 8 -8 7 -8 -1z"/>
<path d="M5480 1603 c-80 -47 -188 -108 -240 -135 -52 -28 -97 -53 -100 -57
-8 -10 -53 -38 -190 -116 -323 -186 -704 -406 -810 -470 -86 -51 -124 -69
-138 -66 -7 1 -84 -38 -170 -87 -86 -49 -250 -142 -364 -207 l-208 -117 0 -64
c0 -35 2 -64 4 -64 3 0 100 55 311 178 33 19 89 52 125 72 36 20 142 81 235
135 94 54 226 130 295 170 69 39 202 116 295 170 94 54 199 115 235 135 36 20
92 53 125 72 129 75 526 303 637 366 l118 67 0 53 c0 28 -3 52 -7 51 -5 0 -73
-39 -153 -86z"/>
<path d="M4866 1657 c-16 -52 -15 -57 12 -50 66 15 67 18 28 41 -26 16 -38 18
-40 9z"/>
<path d="M2752 1643 c8 -41 108 -54 122 -16 10 25 -2 31 -41 23 -21 -5 -44 -5
-54 1 -25 13 -31 11 -27 -8z"/>
<path d="M2882 1617 c2 -7 20 -20 39 -30 45 -24 134 -16 164 14 l20 20 -40
-17 c-45 -19 -106 -15 -154 9 -22 11 -31 12 -29 4z"/>
<path d="M1789 1613 c10 -4 5 -10 -15 -19 l-29 -14 28 5 c37 7 34 -8 -5 -29
-26 -14 -38 -15 -58 -7 -24 11 -24 11 5 6 22 -4 26 -3 15 5 -10 6 -11 10 -2
10 6 0 12 5 12 12 0 9 -3 9 -12 0 -7 -7 -20 -12 -30 -12 -10 0 -18 -6 -18 -14
0 -14 87 -52 97 -42 4 3 0 6 -8 6 -8 1 -2 7 13 16 15 8 34 27 43 43 14 27 13
29 -8 35 -27 7 -47 6 -28 -1z"/>
<path d="M4906 1601 c-11 -16 27 -22 43 -6 14 13 13 15 -11 15 -15 0 -29 -4
-32 -9z"/>
<path d="M5100 1599 c0 -5 5 -7 10 -4 6 3 10 8 10 11 0 2 -4 4 -10 4 -5 0 -10
-5 -10 -11z"/>
<path d="M2880 1540 c0 -20 45 -44 93 -48 54 -4 127 17 127 37 0 5 -12 3 -27
-5 -39 -20 -112 -18 -156 5 -20 10 -37 16 -37 11z"/>
<path d="M5056 1529 c12 -12 28 -19 35 -17 8 3 -1 12 -21 22 l-35 17 21 -22z"/>
<path d="M3680 1535 c0 -13 20 -35 32 -35 4 0 8 5 8 12 0 6 -3 8 -7 5 -3 -4
-12 1 -19 11 -7 9 -14 12 -14 7z"/>
<path d="M2464 1497 c-28 -18 -49 -37 -47 -44 2 -6 -6 -18 -19 -27 -24 -17
-42 -21 -35 -8 6 11 -27 37 -51 39 -16 2 -22 -3 -24 -20 0 -12 -2 -28 -2 -35
-1 -12 -24 -32 -38 -32 -3 0 -4 9 -1 19 4 17 0 20 -23 18 -37 -3 -40 -19 -7
-39 27 -16 30 -16 83 14 63 36 57 26 -13 -20 -37 -25 -51 -29 -65 -21 -14 8
-32 1 -90 -37 l-73 -48 23 -18 c13 -10 26 -18 29 -18 9 0 139 -74 445 -253
l80 -47 92 49 c50 28 102 57 116 66 23 15 25 15 49 -9 46 -46 143 -46 194 0
l28 25 -35 -21 c-73 -42 -186 -16 -204 48 -12 41 -3 49 24 24 12 -11 39 -24
60 -27 42 -7 114 10 131 32 9 10 2 10 -31 -2 -50 -18 -63 -18 -110 -5 -52 14
-68 30 -76 75 l-7 40 26 -23 c14 -13 42 -28 64 -32 45 -11 116 4 135 28 11 14
10 15 -7 7 -34 -15 -138 -17 -165 -3 -14 7 -32 27 -40 45 -8 17 -22 35 -30 41
-8 5 -84 48 -168 97 -149 85 -152 88 -152 121 0 19 -3 34 -7 34 -5 0 -31 -15
-59 -33z m43 -85 c3 -14 11 -18 29 -14 19 3 24 0 24 -18 0 -13 8 -24 20 -27
29 -8 25 -15 -23 -42 -26 -15 -37 -18 -29 -9 9 11 10 18 2 23 -5 3 -10 16 -10
28 -1 19 -2 20 -10 5 -6 -10 -18 -14 -30 -11 -17 5 -20 0 -20 -30 0 -26 -6
-39 -20 -47 -11 -6 -20 -7 -19 -3 4 23 -3 31 -26 28 -37 -4 -39 -10 -8 -30 22
-15 32 -16 57 -6 l31 11 -30 -24 -30 -24 -40 22 c-22 11 -42 22 -45 24 -3 2 7
12 22 23 15 11 29 33 33 49 6 27 35 44 35 20 0 -5 10 -8 23 -6 15 2 23 11 25
27 5 37 10 49 23 49 6 0 13 -8 16 -18z m173 -107 c0 -9 8 -14 22 -12 15 1 23
-4 26 -18 2 -11 12 -25 21 -31 18 -14 19 -13 -29 -41 -19 -11 -52 -30 -72 -42
-21 -13 -38 -20 -38 -17 0 3 22 18 48 33 42 25 47 30 37 48 -5 11 -19 20 -30
20 -16 0 -21 8 -23 38 -3 32 0 37 17 37 12 0 21 -7 21 -15z m-175 -25 c-3 -5
-12 -10 -18 -10 -7 0 -6 4 3 10 19 12 23 12 15 0z m-230 -34 c14 9 28 14 31
11 3 -3 -4 -8 -15 -12 -12 -3 -26 -15 -31 -26 -10 -18 -12 -18 -50 7 -55 36
-54 63 0 29 38 -24 41 -25 65 -9z m311 10 c3 -8 13 -12 25 -9 16 5 19 0 19
-35 0 -31 -4 -41 -20 -45 -13 -3 -20 0 -20 9 0 12 -17 18 -41 16 -6 -1 -2 39
6 66 6 16 24 15 31 -2z m-16 -106 c19 -8 28 -16 22 -22 -6 -6 -24 -2 -47 11
-21 11 -42 18 -47 15 -14 -9 -9 4 9 21 14 14 17 15 24 2 5 -8 22 -20 39 -27z
m-134 -17 l25 4 -20 -19 c-20 -18 -21 -18 -61 2 -27 14 -38 25 -34 35 5 13 11
12 36 -6 18 -13 38 -19 54 -16z m319 -29 c-26 -20 -55 -36 -55 -30 0 5 63 46
70 46 3 -1 -4 -8 -15 -16z m-195 -66 c22 -13 40 -29 40 -37 0 -15 -82 29 -88
48 -5 16 4 14 48 -11z m99 8 c-2 -2 -15 -9 -29 -15 -24 -11 -24 -11 -6 3 16
13 49 24 35 12z"/>
<path d="M4908 1494 c-16 -8 -28 -17 -28 -19 0 -13 40 -3 61 15 29 24 8 27
-33 4z"/>
<path d="M4980 1502 c0 -14 50 -33 71 -27 26 9 24 25 -3 23 -13 -1 -33 2 -45
6 -13 4 -23 3 -23 -2z"/>
<path d="M3770 1475 c14 -8 30 -14 35 -14 6 0 -1 6 -15 14 -14 8 -29 14 -35
14 -5 0 1 -6 15 -14z"/>
<path d="M2856 1472 c-2 -4 -1 -14 5 -22 7 -12 9 -12 9 -2 0 9 11 4 31 -12 25
-21 41 -26 85 -26 30 0 69 7 85 16 43 22 30 28 -17 8 -32 -14 -47 -14 -90 -5
-29 7 -60 21 -69 31 -19 21 -31 25 -39 12z"/>
<path d="M4830 1450 c-14 -10 -22 -21 -20 -24 9 -8 70 26 64 35 -8 13 -16 11
-44 -11z"/>
<path d="M5071 1461 c-11 -7 -6 -13 18 -26 39 -20 46 -16 25 13 -17 24 -22 26
-43 13z"/>
<path d="M3808 1444 c-9 -11 -42 -32 -72 -49 -31 -16 -56 -33 -56 -36 0 -4 14
-12 30 -19 28 -12 34 -10 68 14 31 22 38 23 45 11 5 -9 21 -15 40 -14 l32 1
-30 7 c-27 6 -30 10 -35 55 -5 46 -6 47 -22 30z"/>
<path d="M2861 1378 c0 -13 3 -17 6 -10 3 9 12 6 30 -12 48 -48 155 -42 204
10 l24 27 -33 -24 c-27 -19 -46 -24 -96 -24 -53 0 -69 5 -99 28 l-37 28 1 -23z"/>
<path d="M3360 1393 c0 -14 49 -58 57 -50 3 4 4 8 2 10 -2 1 -16 13 -31 26
-16 14 -28 20 -28 14z"/>
<path d="M3125 1328 c-12 -37 -14 -128 -3 -128 26 0 67 36 72 63 10 48 7 56
-24 72 -37 19 -36 19 -45 -7z"/>
<path d="M3360 1325 c0 -9 5 -15 11 -13 6 2 11 8 11 13 0 5 -5 11 -11 13 -6 2
-11 -4 -11 -13z"/>
<path d="M3240 1310 c0 -5 -6 -9 -12 -7 -7 1 -14 -8 -16 -20 -4 -26 11 -29 47
-9 14 8 31 11 39 8 10 -3 13 0 10 9 -3 8 -14 14 -26 13 -12 0 -19 3 -16 8 3 4
-2 8 -10 8 -9 0 -16 -4 -16 -10z"/>
<path d="M4560 1296 c-37 -24 -68 -42 -298 -175 l-142 -83 -101 58 -102 58 29
23 c16 13 23 23 17 23 -15 0 -53 -36 -53 -50 0 -5 15 -16 34 -24 18 -8 37 -19
41 -25 3 -6 36 -25 72 -41 l66 -30 111 64 c61 35 167 96 235 136 98 56 130 70
150 65 25 -6 25 -6 6 9 -25 19 -23 19 -65 -8z"/>
<path d="M2876 1289 c34 -38 73 -52 131 -47 39 4 60 11 76 28 l22 22 -28 -17
c-38 -24 -136 -17 -177 13 -37 28 -49 28 -24 1z"/>
<path d="M3392 1303 c-19 -8 -4 -22 18 -16 11 3 17 9 14 14 -6 10 -12 10 -32
2z"/>
<path d="M4884 1301 c-5 -5 -61 -38 -124 -74 -223 -125 -280 -158 -280 -163 0
-6 12 0 230 124 206 117 195 110 189 117 -3 2 -10 1 -15 -4z"/>
<path d="M3695 1275 c11 -9 29 -21 40 -26 l20 -10 -20 16 c-11 9 -29 21 -40
26 l-20 10 20 -16z"/>
<path d="M4075 1262 c-6 -4 -16 -20 -23 -36 -11 -24 -11 -31 0 -37 28 -18 38
-9 38 36 0 48 0 48 -15 37z"/>
<path d="M3260 1245 c-7 -8 -8 -15 -2 -15 5 0 15 7 22 15 7 8 8 15 2 15 -5 0
-15 -7 -22 -15z"/>
<path d="M3303 1233 c-13 -2 -23 -8 -23 -13 0 -12 37 -23 50 -15 12 7 14 36 3
34 -5 -1 -18 -4 -30 -6z"/>
<path d="M3356 1227 c2 -7 14 -13 25 -13 19 0 19 1 3 13 -10 7 -21 13 -26 13
-4 0 -5 -6 -2 -13z"/>
<path d="M3600 1231 c0 -5 7 -11 15 -15 8 -3 15 -1 15 3 0 5 -7 11 -15 15 -8
3 -15 1 -15 -3z"/>
<path d="M4004 1226 c-10 -8 -17 -17 -14 -19 3 -3 16 3 30 13 29 22 14 27 -16
6z"/>
<path d="M3530 1215 c-12 -14 -12 -18 1 -25 10 -7 15 -5 17 5 6 28 -3 38 -18
20z"/>
<path d="M3205 1190 c-36 -38 -26 -48 25 -25 44 20 49 29 21 44 -14 8 -24 4
-46 -19z"/>
<path d="M3570 1205 c0 -9 5 -15 11 -13 6 2 11 8 11 13 0 5 -5 11 -11 13 -6 2
-11 -4 -11 -13z"/>
<path d="M3460 1200 c0 -7 -7 -9 -17 -6 -15 6 -15 4 2 -14 18 -20 18 -20 -3
-20 -12 0 -22 -4 -22 -10 0 -13 27 -13 36 1 3 6 17 8 29 5 27 -7 38 3 26 23
-6 8 -17 11 -32 6 -17 -4 -20 -3 -10 3 9 7 10 12 2 16 -6 4 -11 2 -11 -4z"/>
<path d="M3618 1188 c-16 -5 -28 -14 -28 -20 0 -6 7 -7 16 -4 8 3 28 -1 44 -9
44 -23 53 -18 28 15 -24 33 -22 32 -60 18z"/>
<path d="M3270 1175 c-7 -8 -8 -15 -2 -15 5 0 15 7 22 15 7 8 8 15 2 15 -5 0
-15 -7 -22 -15z"/>
<path d="M3291 1134 c-23 -14 -40 -28 -38 -30 2 -3 22 5 43 17 48 28 48 28 43
34 -3 2 -24 -7 -48 -21z"/>
<path d="M3360 1151 c0 -10 30 -24 37 -17 3 2 -5 9 -16 16 -12 6 -21 7 -21 1z"/>
<path d="M3870 1145 c-11 -13 -10 -14 4 -9 9 3 16 10 16 15 0 13 -6 11 -20 -6z"/>
<path d="M3630 1136 c0 -2 8 -10 18 -17 15 -13 16 -12 3 4 -13 16 -21 21 -21
13z"/>
<path d="M3524 1109 c-3 -6 -15 -8 -26 -6 -15 4 -17 3 -8 -8 13 -15 51 -6 58
13 5 15 -15 16 -24 1z"/>
<path d="M3570 1112 c0 -5 12 -14 26 -20 14 -7 23 -8 19 -2 -9 15 -45 32 -45
22z"/>
<path d="M3787 1100 c-14 -11 -30 -20 -36 -20 -6 0 -11 -12 -11 -27 0 -25 14
-25 15 0 1 7 7 11 14 9 7 -1 10 2 6 8 -3 5 1 10 9 10 8 0 20 9 26 20 6 11 9
20 7 20 -3 0 -16 -9 -30 -20z"/>
<path d="M3194 1080 c-21 -8 -42 -30 -29 -30 10 0 65 30 65 35 0 7 -11 5 -36
-5z"/>
<path d="M3448 1064 c-16 -8 -28 -12 -28 -8 0 4 -7 1 -15 -6 -25 -21 -17 -31
13 -16 29 16 70 45 62 45 -3 0 -17 -7 -32 -15z"/>
<path d="M3640 1070 c0 -5 5 -10 11 -10 5 0 7 5 4 10 -3 6 -8 10 -11 10 -2 0
-4 -4 -4 -10z"/>
<path d="M3684 1045 c22 -17 40 -20 32 -6 -3 5 -16 11 -28 14 -22 6 -22 5 -4
-8z"/>
<path d="M4375 1008 c-49 -28 -121 -68 -160 -90 -38 -22 -74 -44 -80 -50 -5
-6 10 0 35 14 236 132 315 179 298 178 -2 0 -43 -23 -93 -52z"/>
<path d="M3502 1013 c-24 -14 -41 -27 -38 -30 6 -7 86 38 86 49 0 10 4 11 -48
-19z"/>
<path d="M3570 1025 c0 -6 76 -45 87 -45 10 0 -69 49 -79 50 -5 0 -8 -2 -8 -5z"/>
<path d="M2865 970 c-4 -6 -4 -14 -1 -17 3 -4 6 -1 6 6 0 7 10 0 23 -15 30
-35 112 -45 171 -20 22 9 37 19 33 22 -3 3 -15 0 -28 -6 -37 -20 -144 -8 -173
19 -16 15 -26 19 -31 11z"/>
<path d="M3686 973 c-16 -4 -15 -7 10 -24 36 -24 62 -26 44 -4 -7 8 -19 15
-27 15 -8 0 -11 5 -8 10 3 6 5 9 3 9 -2 -1 -11 -3 -22 -6z"/>
<path d="M3402 956 c-31 -18 -38 -26 -21 -26 8 0 25 9 39 20 28 22 17 25 -18
6z"/>
<path d="M3690 814 c-80 -47 -153 -87 -162 -91 -16 -5 -18 -19 -18 -100 0 -71
3 -94 13 -91 6 3 17 14 23 26 6 12 13 19 16 17 3 -3 5 2 5 12 0 103 11 120 22
33 l6 -51 95 55 95 54 3 82 3 81 -28 -17 -28 -16 25 21 c33 27 36 27 44 -11 7
-31 8 -32 21 -14 12 16 22 97 13 96 -2 -1 -68 -39 -148 -86z m-15 -40 c-25
-20 -75 -46 -75 -40 0 5 82 56 90 56 3 -1 -4 -8 -15 -16z m-92 -64 c-3 -12 -8
-19 -11 -16 -5 6 5 36 12 36 2 0 2 -9 -1 -20z"/>
<path d="M2894 862 c43 -49 144 -52 194 -5 25 23 25 24 2 9 -33 -22 -141 -21
-183 0 l-32 17 19 -21z"/>
<path d="M4043 819 c-29 -17 -53 -33 -53 -36 0 -5 89 44 105 58 16 16 1 9 -52
-22z"/>
<path d="M2888 783 c26 -49 154 -57 196 -12 14 16 15 19 3 9 -30 -22 -146 -19
-181 5 l-29 19 11 -21z"/>
<path d="M3221 738 c0 -15 -8 -31 -17 -36 -13 -7 -8 -14 27 -34 106 -62 105
-61 149 -37 28 16 36 25 28 31 -21 13 -66 9 -72 -7 -3 -8 0 -15 6 -15 6 0 9
-2 6 -5 -3 -3 -17 -1 -32 4 -23 9 -26 16 -26 56 0 44 0 44 -29 39 -23 -5 -30
-2 -34 12 -3 13 -5 11 -6 -8z"/>
<path d="M2880 710 c0 -4 9 -15 20 -25 30 -27 127 -32 169 -10 40 20 34 31
-10 16 -47 -16 -100 -13 -142 8 -20 10 -37 16 -37 11z"/>
<path d="M3135 641 c0 -68 0 -68 35 -88 19 -11 63 -36 98 -56 l63 -37 40 20
c38 20 39 22 39 75 0 59 -4 63 -38 39 -20 -14 -24 -13 -55 10 -19 15 -37 26
-40 26 -4 0 -36 18 -72 40 -36 22 -66 40 -68 40 -1 0 -2 -31 -2 -69z"/>
<path d="M2880 633 c0 -26 43 -47 103 -50 65 -4 106 10 115 37 5 13 3 13 -11
2 -43 -36 -147 -32 -189 5 -10 9 -18 12 -18 6z"/>
<path d="M3107 556 c-9 -7 -17 -18 -17 -24 0 -17 24 -20 41 -5 13 11 21 11 43
2 29 -14 31 -20 14 -37 -9 -9 -9 -15 0 -24 10 -9 16 -9 29 4 15 15 19 16 47 1
41 -21 41 -20 26 -39 -12 -13 -11 -17 0 -24 16 -10 40 5 40 26 0 10 -113 83
-200 129 -3 2 -13 -2 -23 -9z"/>
</g>
</svg>
